<svg width="17" height="17" viewBox="0 0 17 17" fill="none" xmlns="http://www.w3.org/2000/svg">
<path d="M8.5 11.8333H8.50833M11.8333 11.8333H11.8417M5.16667 11.8333H5.175M1 14.3333C1 14.7754 1.17559 15.1993 1.48816 15.5118C1.80072 15.8244 2.22464 16 2.66667 16H14.3333C14.7754 16 15.1993 15.8244 15.5118 15.5118C15.8244 15.1993 16 14.7754 16 14.3333V5.58333C16.0001 5.50858 15.98 5.43519 15.942 5.37085C15.904 5.3065 15.8493 5.25357 15.7838 5.21761C15.7183 5.18165 15.6443 5.16398 15.5696 5.16645C15.4948 5.16893 15.4222 5.19145 15.3592 5.23167L11.6408 7.60167C11.5778 7.64188 11.5052 7.66441 11.4304 7.66688C11.3557 7.66935 11.2817 7.65168 11.2162 7.61572C11.1507 7.57976 11.096 7.52683 11.058 7.46249C11.02 7.39814 10.9999 7.32475 11 7.25V5.58333C11.0001 5.50858 10.98 5.43519 10.942 5.37085C10.904 5.3065 10.8493 5.25357 10.7838 5.21761C10.7183 5.18165 10.6443 5.16398 10.5696 5.16645C10.4948 5.16893 10.4222 5.19145 10.3592 5.23167L6.64167 7.60167C6.57864 7.6421 6.50589 7.6648 6.43106 7.66739C6.35622 7.66998 6.28208 7.65235 6.21641 7.61636C6.15075 7.58038 6.096 7.52736 6.05791 7.46289C6.01983 7.39842 5.99982 7.32488 6 7.25V2.66667C6 2.22464 5.8244 1.80072 5.51184 1.48816C5.19928 1.17559 4.77536 1 4.33333 1H2.66667C2.22464 1 1.80072 1.17559 1.48816 1.48816C1.17559 1.80072 1 2.22464 1 2.66667V14.3333Z" stroke="currentColor" stroke-width="2" stroke-linecap="round" stroke-linejoin="round"/>
</svg>
