<svg width="18" height="20" viewBox="0 0 18 20" fill="none" xmlns="http://www.w3.org/2000/svg">
<path d="M9 0C9.24375 0 9.47812 0.0380951 9.70312 0.114286C9.92812 0.190476 10.1437 0.304762 10.35 0.457143L17.1 5.6C17.3812 5.80952 17.6017 6.07619 17.7615 6.4C17.9212 6.72381 18.0007 7.06667 18 7.42857V18.8571C18 19.181 17.892 19.4526 17.676 19.672C17.46 19.8914 17.193 20.0008 16.875 20C16.557 19.9992 16.29 19.8895 16.074 19.6709C15.858 19.4522 15.75 19.181 15.75 18.8571V7.42857L9 2.28571L2.25 7.42857V18.8571C2.25 19.181 2.142 19.4526 1.926 19.672C1.71 19.8914 1.443 20.0008 1.125 20C0.807 19.9992 0.54 19.8895 0.324 19.6709C0.108 19.4522 0 19.181 0 18.8571V7.42857C0 7.06667 0.0798748 6.72381 0.239625 6.4C0.399375 6.07619 0.6195 5.80952 0.9 5.6L7.65 0.457143C7.85625 0.304762 8.07187 0.190476 8.29687 0.114286C8.52187 0.0380951 8.75625 0 9 0ZM5.625 17.7143H12.375V15.4286H5.625V17.7143ZM5.625 13.1429H12.375V10.8571H5.625V13.1429ZM4.5 20C4.18125 20 3.91425 19.8903 3.699 19.6709C3.48375 19.4514 3.37575 19.1802 3.375 18.8571V9.71428C3.375 9.39047 3.483 9.11924 3.699 8.90057C3.915 8.6819 4.182 8.57219 4.5 8.57143H13.5C13.8187 8.57143 14.0861 8.68114 14.3021 8.90057C14.5181 9.12 14.6257 9.39124 14.625 9.71428V18.8571C14.625 19.181 14.517 19.4526 14.301 19.672C14.085 19.8914 13.818 20.0008 13.5 20H4.5Z" fill="currentColor"/>
</svg>
