<svg width="20" height="17" viewBox="0 0 20 17" fill="none" xmlns="http://www.w3.org/2000/svg">
<path d="M14.1668 16V14.3333C14.1668 13.4493 13.8156 12.6014 13.1905 11.9763C12.5654 11.3512 11.7176 11 10.8335 11H4.16683C3.28277 11 2.43493 11.3512 1.80981 11.9763C1.18469 12.6014 0.833496 13.4493 0.833496 14.3333V16M19.1668 16V14.3333C19.1663 13.5948 18.9205 12.8773 18.468 12.2936C18.0155 11.7099 17.3819 11.293 16.6668 11.1083M13.3335 1.10833C14.0505 1.29192 14.686 1.70892 15.1399 2.29359C15.5937 2.87827 15.84 3.59736 15.84 4.3375C15.84 5.07764 15.5937 5.79673 15.1399 6.38141C14.686 6.96608 14.0505 7.38308 13.3335 7.56667M10.8335 4.33333C10.8335 6.17428 9.34111 7.66667 7.50016 7.66667C5.65921 7.66667 4.16683 6.17428 4.16683 4.33333C4.16683 2.49238 5.65921 1 7.50016 1C9.34111 1 10.8335 2.49238 10.8335 4.33333Z" stroke="currentColor" stroke-width="2" stroke-linecap="round" stroke-linejoin="round"/>
</svg>
