<svg width="39" height="34" viewBox="0 0 39 34" fill="none" xmlns="http://www.w3.org/2000/svg">
<path d="M19.1634 11.9212V18.5879M19.1634 25.2546H19.18M16.3134 3.35457L2.1967 26.9212C1.90564 27.4253 1.75164 27.9967 1.75001 28.5788C1.74838 29.1608 1.89918 29.7331 2.18741 30.2388C2.47564 30.7444 2.89124 31.1658 3.39288 31.461C3.89451 31.7562 4.4647 31.9148 5.0467 31.9212H33.28C33.862 31.9148 34.4322 31.7562 34.9338 31.461C35.4355 31.1658 35.8511 30.7444 36.1393 30.2388C36.4275 29.7331 36.5783 29.1608 36.5767 28.5788C36.5751 27.9967 36.4211 27.4253 36.13 26.9212L22.0134 3.35457C21.7162 2.86475 21.2979 2.45977 20.7987 2.17871C20.2995 1.89765 19.7363 1.75 19.1634 1.75C18.5905 1.75 18.0272 1.89765 17.528 2.17871C17.0288 2.45977 16.6105 2.86475 16.3134 3.35457Z" stroke="#EC221F" stroke-width="3.5" stroke-linecap="round" stroke-linejoin="round"/>
</svg>
