<svg width="17" height="22" viewBox="0 0 17 22" fill="none" xmlns="http://www.w3.org/2000/svg">
<path d="M2.86968 8.91446C1.86014 10.0277 1.22512 11.4135 1.04963 12.8866C0.874135 14.3596 1.16655 15.8495 1.88772 17.1568C2.60889 18.4642 3.72441 19.5266 5.08494 20.2018C6.44548 20.877 7.9861 21.1328 9.50059 20.9349C11.0151 20.7371 12.4312 20.0951 13.5593 19.0948C14.6874 18.0945 15.4736 16.7837 15.8129 15.3379C16.1521 13.892 16.0281 12.3801 15.4574 11.0045C14.8867 9.62898 13.8966 8.45539 12.6197 7.64087C12.3697 9.88482 10.9947 11.31 8.49468 11.9165C10.3697 8.27767 9.74468 4.63883 6.61968 1C6.61968 4.03236 5.36968 6.67052 2.86968 8.91446Z" stroke="#757575" stroke-width="2" stroke-linecap="round" stroke-linejoin="round"/>
</svg>
