<svg width="10" height="20" viewBox="0 0 10 20" fill="none" xmlns="http://www.w3.org/2000/svg">
<path d="M2 3C2 2.20435 2.31607 1.44129 2.87868 0.87868C3.44129 0.316071 4.20435 0 5 0C5.79565 0 6.55871 0.316071 7.12132 0.87868C7.68393 1.44129 8 2.20435 8 3V11C8.83953 11.6296 9.45967 12.5075 9.77257 13.5092C10.0855 14.5108 10.0753 15.5856 9.74342 16.5811C9.41156 17.5767 8.77488 18.4426 7.92355 19.0562C7.07222 19.6698 6.04941 20 5 20C3.95059 20 2.92778 19.6698 2.07645 19.0562C1.22512 18.4426 0.588437 17.5767 0.256584 16.5811C-0.0752697 15.5856 -0.0854685 14.5108 0.227432 13.5092C0.540333 12.5075 1.16047 11.6296 2 11V3ZM5 2C4.73478 2 4.48043 2.10536 4.29289 2.29289C4.10536 2.48043 4 2.73478 4 3V11.535C4 11.7105 3.95379 11.883 3.86602 12.035C3.77825 12.187 3.65202 12.3132 3.5 12.401C2.92797 12.7311 2.48086 13.2408 2.22803 13.8509C1.9752 14.4611 1.93077 15.1376 2.10165 15.7755C2.27252 16.4135 2.64915 16.9773 3.1731 17.3793C3.69705 17.7814 4.33905 17.9994 4.9995 17.9994C5.65995 17.9994 6.30195 17.7814 6.8259 17.3793C7.34985 16.9773 7.72648 16.4135 7.89735 15.7755C8.06823 15.1376 8.02381 14.4611 7.77097 13.8509C7.51814 13.2408 7.07103 12.7311 6.499 12.401C6.34717 12.3131 6.22114 12.1868 6.13355 12.0348C6.04596 11.8828 5.9999 11.7104 6 11.535V3C6 2.73478 5.89464 2.48043 5.70711 2.29289C5.51957 2.10536 5.26522 2 5 2Z" fill="#FF6900"/>
</svg>
