<svg width="79" height="88" viewBox="0 0 79 88" fill="none" xmlns="http://www.w3.org/2000/svg">
<path d="M3.125 22.6581L39.5 43.6998L75.875 22.6581M39.5 85.6581V43.6581M77 60.3248V26.9915C76.9985 25.5301 76.6127 24.0948 75.8814 22.8296C75.1501 21.5644 74.0989 20.5138 72.8333 19.7831L43.6667 3.11645C42.3998 2.38505 40.9628 2 39.5 2C38.0372 2 36.6002 2.38505 35.3333 3.11645L6.16667 19.7831C4.90109 20.5138 3.84992 21.5644 3.11859 22.8296C2.38726 24.0948 2.0015 25.5301 2 26.9915V60.3248C2.0015 61.7862 2.38726 63.2214 3.11859 64.4866C3.84992 65.7518 4.90109 66.8024 6.16667 67.5331L35.3333 84.1998C36.6002 84.9312 38.0372 85.3163 39.5 85.3163C40.9628 85.3163 42.3998 84.9312 43.6667 84.1998L72.8333 67.5331C74.0989 66.8024 75.1501 65.7518 75.8814 64.4866C76.6127 63.2214 76.9985 61.7862 77 60.3248Z" stroke="#1E1E1E" stroke-width="4" stroke-linecap="round" stroke-linejoin="round"/>
</svg>
