<svg width="40" height="45" viewBox="0 0 40 45" fill="none" xmlns="http://www.w3.org/2000/svg">
<path d="M2.54 11.9159L20 22.0159L37.46 11.9159M20 42.1559V21.9959M38 29.9959V13.9959C37.9993 13.2944 37.8141 12.6055 37.4631 11.9982C37.112 11.3909 36.6075 10.8866 36 10.5359L22 2.5359C21.3919 2.18482 20.7021 2 20 2C19.2979 2 18.6081 2.18482 18 2.5359L4 10.5359C3.39253 10.8866 2.88796 11.3909 2.53692 11.9982C2.18589 12.6055 2.00072 13.2944 2 13.9959V29.9959C2.00072 30.6974 2.18589 31.3863 2.53692 31.9936C2.88796 32.6009 3.39253 33.1052 4 33.4559L18 41.4559C18.6081 41.807 19.2979 41.9918 20 41.9918C20.7021 41.9918 21.3919 41.807 22 41.4559L36 33.4559C36.6075 33.1052 37.112 32.6009 37.4631 31.9936C37.8141 31.3863 37.9993 30.6974 38 29.9959Z" stroke="#1E1E1E" stroke-width="4" stroke-linecap="round" stroke-linejoin="round"/>
</svg>
